<svg width="350" height="42" viewBox="0 0 350 42" fill="none" xmlns="http://www.w3.org/2000/svg">
<path d="M105.089 1L105.089 41" stroke="white" stroke-linecap="square"/>
<path d="M130.052 30.7905V15.5147H132.784V30.7905H130.052ZM131.418 12.6353C130.912 12.6353 130.497 12.4737 130.173 12.1504C129.849 11.8069 129.687 11.3826 129.687 10.8774C129.687 10.3925 129.849 9.98833 130.173 9.66503C130.497 9.32152 130.912 9.14977 131.418 9.14977C131.924 9.14977 132.339 9.32152 132.663 9.66503C132.987 9.98833 133.149 10.3925 133.149 10.8774C133.149 11.3826 132.987 11.8069 132.663 12.1504C132.339 12.4737 131.924 12.6353 131.418 12.6353Z" fill="white"/>
<path d="M146.832 30.7905C145.354 30.7905 143.968 30.5178 142.672 29.9722C141.397 29.4064 140.273 28.6285 139.302 27.6384C138.35 26.6483 137.601 25.4965 137.055 24.1831C136.508 22.8697 136.235 21.4553 136.235 19.9399C136.235 18.4244 136.508 17.0201 137.055 15.7269C137.601 14.4135 138.36 13.2617 139.332 12.2716C140.304 11.2815 141.437 10.5137 142.733 9.96812C144.049 9.42255 145.476 9.14977 147.014 9.14977C148.694 9.14977 150.243 9.47307 151.66 10.1197C153.077 10.7663 154.261 11.6957 155.212 12.9081L153.239 14.8782C152.571 13.9083 151.69 13.1708 150.597 12.6656C149.504 12.1403 148.31 11.8776 147.014 11.8776C145.476 11.8776 144.109 12.2211 142.915 12.9081C141.741 13.5951 140.82 14.5448 140.152 15.7572C139.504 16.9695 139.18 18.3638 139.18 19.9399C139.18 21.5361 139.514 22.9405 140.182 24.1528C140.85 25.3652 141.751 26.3149 142.885 27.0019C144.018 27.6889 145.314 28.0324 146.771 28.0324C148.249 28.0324 149.524 27.7495 150.597 27.1838C151.69 26.618 152.53 25.7895 153.117 24.6984C153.704 23.5871 153.998 22.2332 153.998 20.637L155.729 21.8796H146.619V19.273H156.943V19.6974C156.943 22.1423 156.508 24.1932 155.638 25.8501C154.787 27.4868 153.593 28.7194 152.055 29.5479C150.536 30.3763 148.796 30.7905 146.832 30.7905Z" fill="white"/>
<path d="M166.43 30.7905C165.114 30.7905 163.92 30.4673 162.847 29.8207C161.774 29.1539 160.924 28.2547 160.297 27.1231C159.689 25.9916 159.386 24.7186 159.386 23.3042C159.386 21.8897 159.689 20.6168 160.297 19.4852C160.924 18.3537 161.764 17.4545 162.817 16.7877C163.89 16.1209 165.094 15.7875 166.43 15.7875C167.523 15.7875 168.495 16.0199 169.345 16.4846C170.216 16.9291 170.914 17.5555 171.44 18.3638C171.967 19.1518 172.26 20.0712 172.321 21.1219V25.4561C172.26 26.4866 171.967 27.406 171.44 28.2143C170.934 29.0225 170.246 29.659 169.376 30.1237C168.525 30.5683 167.544 30.7905 166.43 30.7905ZM166.886 28.2143C168.242 28.2143 169.335 27.7596 170.165 26.8504C170.995 25.9209 171.41 24.7388 171.41 23.3042C171.41 22.3141 171.218 21.4553 170.833 20.7279C170.469 19.9803 169.942 19.4044 169.254 19.0003C168.566 18.5759 167.766 18.3638 166.855 18.3638C165.944 18.3638 165.135 18.5759 164.426 19.0003C163.738 19.4246 163.191 20.0106 162.786 20.7582C162.402 21.4856 162.21 22.3242 162.21 23.2739C162.21 24.2438 162.402 25.1025 162.786 25.8501C163.191 26.5776 163.748 27.1534 164.457 27.5778C165.165 28.0021 165.975 28.2143 166.886 28.2143ZM171.228 30.4875V26.6079L171.744 23.092L171.228 19.6065V16.0906H173.991V30.4875H171.228Z" fill="white"/>
<path d="M177.97 30.4875V16.0906H180.702V30.4875H177.97ZM187.717 30.4875V21.7887C187.717 20.7178 187.383 19.8792 186.715 19.273C186.067 18.6467 185.247 18.3335 184.255 18.3335C183.587 18.3335 182.99 18.4749 182.464 18.7578C181.937 19.0407 181.512 19.4347 181.188 19.9399C180.864 20.445 180.702 21.0512 180.702 21.7584L179.579 21.2128C179.579 20.1217 179.812 19.172 180.277 18.3638C180.763 17.5555 181.421 16.9291 182.251 16.4846C183.081 16.0199 184.012 15.7875 185.044 15.7875C186.057 15.7875 186.968 16.0098 187.777 16.4543C188.607 16.8988 189.255 17.5252 189.721 18.3335C190.206 19.1417 190.449 20.1015 190.449 21.2128V30.4875H187.717ZM197.463 30.4875V21.7887C197.463 20.7178 197.129 19.8792 196.461 19.273C195.814 18.6467 195.004 18.3335 194.032 18.3335C193.364 18.3335 192.757 18.4749 192.21 18.7578C191.684 19.0407 191.259 19.4347 190.935 19.9399C190.611 20.445 190.449 21.0512 190.449 21.7584L188.901 21.2128C188.961 20.1015 189.255 19.1518 189.781 18.3638C190.328 17.5555 191.026 16.9291 191.876 16.4846C192.727 16.0199 193.658 15.7875 194.67 15.7875C195.723 15.7875 196.664 16.0098 197.494 16.4543C198.324 16.8988 198.982 17.5252 199.468 18.3335C199.974 19.1417 200.227 20.1116 200.227 21.2431V30.4875H197.463Z" fill="white"/>
<path d="M203.976 30.4875V16.0906H206.708V30.4875H203.976ZM205.342 13.2112C204.836 13.2112 204.421 13.0496 204.097 12.7263C203.773 12.3828 203.611 11.9584 203.611 11.4533C203.611 10.9683 203.773 10.5642 204.097 10.2409C204.421 9.8974 204.836 9.72565 205.342 9.72565C205.848 9.72565 206.263 9.8974 206.587 10.2409C206.911 10.5642 207.073 10.9683 207.073 11.4533C207.073 11.9584 206.911 12.3828 206.587 12.7263C206.263 13.0496 205.848 13.2112 205.342 13.2112Z" fill="white"/>
<path d="M220.938 30.4875V22.0918C220.938 21.0007 220.594 20.1015 219.906 19.3943C219.218 18.6871 218.327 18.3335 217.234 18.3335C216.505 18.3335 215.857 18.4951 215.29 18.8184C214.724 19.1417 214.278 19.5862 213.954 20.152C213.631 20.7178 213.469 21.3644 213.469 22.0918L212.345 21.4553C212.345 20.3642 212.588 19.3943 213.074 18.5456C213.56 17.697 214.238 17.0302 215.108 16.5452C215.979 16.0401 216.96 15.7875 218.054 15.7875C219.147 15.7875 220.108 16.0603 220.938 16.6058C221.788 17.1514 222.456 17.8687 222.942 18.7578C223.428 19.6267 223.671 20.5561 223.671 21.5462V30.4875H220.938ZM210.736 30.4875V16.0906H213.469V30.4875H210.736Z" fill="white"/>
<path d="M233.353 36.8221C231.875 36.8221 230.559 36.5493 229.405 36.0037C228.272 35.4582 227.361 34.6903 226.673 33.7002L228.434 31.912C229.021 32.6596 229.719 33.2254 230.529 33.6093C231.339 34.0134 232.3 34.2155 233.413 34.2155C234.891 34.2155 236.055 33.8215 236.905 33.0334C237.776 32.2656 238.211 31.225 238.211 29.9116V26.3351L238.697 23.092L238.211 19.8792V16.0906H240.944V29.9116C240.944 31.2856 240.62 32.4879 239.972 33.5184C239.345 34.5489 238.454 35.3571 237.3 35.9431C236.166 36.5291 234.851 36.8221 233.353 36.8221ZM233.353 30.245C232.037 30.245 230.853 29.9318 229.8 29.3054C228.768 28.679 227.948 27.8202 227.341 26.7291C226.733 25.6178 226.43 24.3751 226.43 23.0011C226.43 21.6271 226.733 20.4046 227.341 19.3337C227.948 18.2425 228.768 17.3838 229.8 16.7574C230.853 16.1108 232.037 15.7875 233.353 15.7875C234.486 15.7875 235.488 16.0098 236.359 16.4543C237.229 16.8988 237.917 17.5252 238.424 18.3335C238.95 19.1215 239.233 20.051 239.274 21.1219V24.9409C239.213 25.9916 238.919 26.9211 238.393 27.7293C237.887 28.5174 237.199 29.1336 236.328 29.5782C235.458 30.0227 234.466 30.245 233.353 30.245ZM233.899 27.6687C234.79 27.6687 235.569 27.4767 236.237 27.0928C236.926 26.7089 237.452 26.1734 237.816 25.4864C238.181 24.7792 238.363 23.9609 238.363 23.0314C238.363 22.1019 238.17 21.2937 237.786 20.6067C237.422 19.8994 236.905 19.3539 236.237 18.97C235.569 18.5658 234.78 18.3638 233.869 18.3638C232.958 18.3638 232.158 18.5658 231.47 18.97C230.782 19.3539 230.235 19.8994 229.83 20.6067C229.446 21.2937 229.254 22.0918 229.254 23.0011C229.254 23.9104 229.446 24.7186 229.83 25.4258C230.235 26.133 230.782 26.6887 231.47 27.0928C232.179 27.4767 232.988 27.6687 233.899 27.6687Z" fill="white"/>
<path d="M251.028 30.4875V10.059H253.882V30.4875H251.028ZM243.862 12.0595V9.45287H261.018V12.0595H243.862Z" fill="white"/>
<path d="M266.61 30.7905C265.172 30.7905 263.877 30.4673 262.723 29.8207C261.569 29.1539 260.658 28.2547 259.99 27.1231C259.322 25.9916 258.988 24.7085 258.988 23.2739C258.988 21.8594 259.312 20.5864 259.96 19.4549C260.628 18.3234 261.519 17.4343 262.632 16.7877C263.766 16.1209 265.031 15.7875 266.427 15.7875C267.764 15.7875 268.938 16.0906 269.95 16.6968C270.982 17.3029 271.782 18.1415 272.349 19.2124C272.936 20.2834 273.229 21.4957 273.229 22.8495C273.229 23.0516 273.219 23.2739 273.199 23.5163C273.178 23.7386 273.138 24.0013 273.077 24.3044H260.901V22.0312H271.62L270.618 22.9102C270.618 21.9403 270.446 21.1219 270.102 20.4551C269.757 19.7681 269.272 19.2427 268.644 18.879C268.017 18.4951 267.257 18.3032 266.367 18.3032C265.436 18.3032 264.616 18.5052 263.907 18.9093C263.199 19.3135 262.652 19.8792 262.268 20.6067C261.883 21.3341 261.691 22.1928 261.691 23.1829C261.691 24.1932 261.893 25.0823 262.298 25.8501C262.703 26.5978 263.28 27.1838 264.029 27.6081C264.778 28.0122 265.638 28.2143 266.61 28.2143C267.419 28.2143 268.158 28.0728 268.826 27.7899C269.515 27.507 270.102 27.0827 270.587 26.5169L272.349 28.3052C271.66 29.1134 270.81 29.7297 269.798 30.1541C268.806 30.5784 267.743 30.7905 266.61 30.7905Z" fill="white"/>
<path d="M285.238 30.4875L280.744 24.1831L280.228 23.6982L274.549 16.0906H277.859L281.958 21.6978L282.475 22.1221L288.547 30.4875H285.238ZM274.276 30.4875L280.228 22.4858L281.776 24.4862L277.495 30.4875H274.276ZM282.687 23.6679L281.108 21.7281L285.086 16.0906H288.274L282.687 23.6679Z" fill="white"/>
<path d="M292.659 30.4875V10.059H295.391V30.4875H292.659ZM289.106 18.5759V16.0906H298.944V18.5759H289.106Z" fill="white"/>
<path d="M302.107 30.4875V9.45287H304.961V30.4875H302.107ZM304.05 30.4875V27.8809H315.346V30.4875H304.05Z" fill="white"/>
<path d="M323.886 30.7905C322.57 30.7905 321.376 30.4673 320.303 29.8207C319.23 29.1539 318.38 28.2547 317.752 27.1231C317.145 25.9916 316.841 24.7186 316.841 23.3042C316.841 21.8897 317.145 20.6168 317.752 19.4852C318.38 18.3537 319.22 17.4545 320.272 16.7877C321.345 16.1209 322.55 15.7875 323.886 15.7875C324.979 15.7875 325.951 16.0199 326.801 16.4846C327.671 16.9291 328.37 17.5555 328.896 18.3638C329.422 19.1518 329.716 20.0712 329.776 21.1219V25.4561C329.716 26.4866 329.422 27.406 328.896 28.2143C328.39 29.0225 327.702 29.659 326.831 30.1237C325.981 30.5683 324.999 30.7905 323.886 30.7905ZM324.341 28.2143C325.698 28.2143 326.791 27.7596 327.621 26.8504C328.451 25.9209 328.866 24.7388 328.866 23.3042C328.866 22.3141 328.673 21.4553 328.289 20.7279C327.924 19.9803 327.398 19.4044 326.71 19.0003C326.021 18.5759 325.222 18.3638 324.311 18.3638C323.4 18.3638 322.59 18.5759 321.882 19.0003C321.193 19.4246 320.647 20.0106 320.242 20.7582C319.857 21.4856 319.665 22.3242 319.665 23.2739C319.665 24.2438 319.857 25.1025 320.242 25.8501C320.647 26.5776 321.204 27.1534 321.912 27.5778C322.621 28.0021 323.43 28.2143 324.341 28.2143ZM328.683 30.4875V26.6079L329.2 23.092L328.683 19.6065V16.0906H331.446V30.4875H328.683Z" fill="white"/>
<path d="M343.016 30.7905C341.923 30.7905 340.931 30.5683 340.041 30.1237C339.17 29.659 338.472 29.0225 337.945 28.2143C337.419 27.406 337.126 26.4866 337.065 25.4561V21.1219C337.126 20.0712 337.419 19.1518 337.945 18.3638C338.492 17.5555 339.2 16.9291 340.071 16.4846C340.962 16.0199 341.943 15.7875 343.016 15.7875C344.332 15.7875 345.516 16.1209 346.569 16.7877C347.642 17.4545 348.482 18.3537 349.089 19.4852C349.696 20.6168 350 21.8897 350 23.3042C350 24.7186 349.696 25.9916 349.089 27.1231C348.482 28.2547 347.642 29.1539 346.569 29.8207C345.516 30.4673 344.332 30.7905 343.016 30.7905ZM342.561 28.2143C343.472 28.2143 344.271 28.0021 344.96 27.5778C345.648 27.1534 346.194 26.5776 346.599 25.8501C347.004 25.1025 347.207 24.2438 347.207 23.2739C347.207 22.3242 347.004 21.4755 346.599 20.7279C346.194 19.9803 345.648 19.4044 344.96 19.0003C344.271 18.5759 343.482 18.3638 342.591 18.3638C341.68 18.3638 340.881 18.5759 340.192 19.0003C339.504 19.4044 338.968 19.9803 338.583 20.7279C338.198 21.4755 338.006 22.3343 338.006 23.3042C338.006 24.2539 338.188 25.1025 338.553 25.8501C338.937 26.5776 339.474 27.1534 340.162 27.5778C340.871 28.0021 341.67 28.2143 342.561 28.2143ZM335.425 30.4875V8.84668H338.158V19.6065L337.642 23.092L338.158 26.6079V30.4875H335.425Z" fill="white"/>
<rect y="6.92261" width="3.7153" height="3.70856" fill="black"/>
<rect x="3.7135" y="3.2146" width="3.7153" height="3.70856" fill="black"/>
<rect y="3.2146" width="3.7153" height="3.70856" fill="black"/>
<rect x="78.4338" y="29.1746" width="3.7153" height="3.70856" fill="white"/>
<rect x="78.4338" y="25.4656" width="3.7153" height="3.70856" fill="white"/>
<rect x="78.4338" y="32.8826" width="3.7153" height="3.70856" fill="white"/>
<rect x="56.1407" y="3.2146" width="3.7153" height="3.70856" fill="white"/>
<rect x="29.7228" y="6.92261" width="3.7153" height="3.70856" fill="white"/>
<rect x="44.9973" y="14.3396" width="3.7153" height="3.70856" fill="white"/>
<rect x="63.5726" y="14.3396" width="3.7153" height="3.70856" fill="white"/>
<rect x="44.9973" y="10.6316" width="3.7153" height="3.70856" fill="white"/>
<rect x="63.5726" y="10.6316" width="3.7153" height="3.70856" fill="white"/>
<rect x="44.9973" y="6.92261" width="3.7153" height="3.70856" fill="white"/>
<rect x="41.2795" y="3.2146" width="3.7153" height="3.70856" fill="white"/>
<rect x="44.9973" y="3.2146" width="3.7153" height="3.70856" fill="white"/>
<rect y="18.0486" width="3.7153" height="3.70856" fill="white"/>
<rect x="44.9973" y="18.0486" width="3.7153" height="3.70856" fill="white"/>
<rect x="63.5726" y="18.0486" width="3.7153" height="3.70856" fill="white"/>
<rect y="25.4658" width="3.7153" height="3.70856" fill="white"/>
<rect x="44.9973" y="25.4656" width="3.7153" height="3.70856" fill="white"/>
<rect x="63.5726" y="25.4656" width="3.7153" height="3.70856" fill="white"/>
<rect y="21.7563" width="3.7153" height="3.70856" fill="white"/>
<rect x="63.5726" y="21.7566" width="3.7153" height="3.70856" fill="white"/>
<rect y="29.1746" width="3.7153" height="3.70856" fill="white"/>
<rect x="44.9973" y="29.1746" width="3.7153" height="3.70856" fill="white"/>
<rect x="63.5726" y="29.1746" width="3.7153" height="3.70856" fill="white"/>
<rect y="32.8826" width="3.7153" height="3.70856" fill="white"/>
<rect x="44.9973" y="32.8826" width="3.7153" height="3.70856" fill="white"/>
<rect x="63.5726" y="32.8826" width="3.7153" height="3.70856" fill="white"/>
<rect x="3.7135" y="14.3396" width="3.7153" height="3.70856" fill="white"/>
<rect x="48.7131" y="14.3396" width="3.7153" height="3.70856" fill="white"/>
<rect x="67.2883" y="14.3396" width="3.7153" height="3.70856" fill="white"/>
<rect x="48.7131" y="10.6316" width="3.7153" height="3.70856" fill="white"/>
<rect x="67.2883" y="10.6316" width="3.7153" height="3.70856" fill="white"/>
<rect x="67.2883" y="6.92261" width="3.7153" height="3.70856" fill="white"/>
<rect x="63.5726" y="6.92261" width="3.7153" height="3.70856" fill="white"/>
<rect x="67.2883" y="3.2146" width="3.7153" height="3.70856" fill="white"/>
<rect x="48.7131" y="6.92261" width="3.7153" height="3.70856" fill="white"/>
<rect x="52.4271" y="6.92261" width="3.7153" height="3.70856" fill="white"/>
<rect x="56.1407" y="6.92261" width="3.7153" height="3.70856" fill="white"/>
<rect x="37.5654" y="3.2146" width="3.7153" height="3.70856" fill="white"/>
<rect x="41.2795" y="6.92261" width="3.7153" height="3.70856" fill="white"/>
<rect x="37.5654" y="6.92261" width="3.7153" height="3.70856" fill="white"/>
<rect x="52.4271" y="3.2146" width="3.7153" height="3.70856" fill="white"/>
<rect x="48.7131" y="3.2146" width="3.7153" height="3.70856" fill="white"/>
<rect x="14.8612" y="14.3396" width="3.7153" height="3.70856" fill="white"/>
<rect x="11.1455" y="14.3396" width="3.7153" height="3.70856" fill="white"/>
<rect x="11.1455" y="10.6316" width="3.7153" height="3.70856" fill="white"/>
<rect x="11.1455" y="6.92261" width="3.7153" height="3.70856" fill="white"/>
<rect x="14.8612" y="6.92261" width="3.7153" height="3.70856" fill="white"/>
<rect x="14.8612" y="3.2146" width="3.7153" height="3.70856" fill="white"/>
<rect x="18.5752" y="3.2146" width="3.7153" height="3.70856" fill="white"/>
<rect x="18.5752" y="6.92261" width="3.7153" height="3.70856" fill="white"/>
<rect x="22.291" y="3.2146" width="3.7153" height="3.70856" fill="white"/>
<rect x="26.0067" y="3.2146" width="3.7153" height="3.70856" fill="white"/>
<rect x="22.291" y="6.92261" width="3.7153" height="3.70856" fill="white"/>
<rect x="26.0067" y="6.92261" width="3.7153" height="3.70856" fill="white"/>
<rect x="14.8612" y="10.6316" width="3.7153" height="3.70856" fill="white"/>
<rect x="14.8612" y="18.0486" width="3.7153" height="3.70856" fill="white"/>
<rect x="11.1455" y="18.0486" width="3.7153" height="3.70856" fill="white"/>
<rect x="14.8612" y="21.7566" width="3.7153" height="3.70856" fill="white"/>
<rect x="11.1455" y="21.7566" width="3.7153" height="3.70856" fill="white"/>
<rect x="14.8612" y="25.4656" width="3.7153" height="3.70856" fill="white"/>
<rect x="11.1455" y="25.4656" width="3.7153" height="3.70856" fill="white"/>
<rect x="11.1455" y="29.1746" width="3.7153" height="3.70856" fill="white"/>
<rect x="14.8612" y="29.1746" width="3.7153" height="3.70856" fill="white"/>
<rect x="14.8612" y="32.8826" width="3.7153" height="3.70856" fill="white"/>
<rect x="18.5752" y="32.8826" width="3.7153" height="3.70856" fill="white"/>
<rect x="18.5752" y="29.1746" width="3.7153" height="3.70856" fill="white"/>
<rect x="22.291" y="32.8826" width="3.7153" height="3.70856" fill="white"/>
<rect x="26.0067" y="32.8826" width="3.7153" height="3.70856" fill="white"/>
<rect x="22.291" y="29.1746" width="3.7153" height="3.70856" fill="white"/>
<rect x="26.0067" y="29.1746" width="3.7153" height="3.70856" fill="white"/>
<rect x="26.0067" y="25.4656" width="3.7153" height="3.70856" fill="white"/>
<rect x="26.0067" y="21.7566" width="3.7153" height="3.70856" fill="white"/>
<rect x="29.7228" y="29.1746" width="3.7153" height="3.70856" fill="white"/>
<rect x="29.7228" y="25.4656" width="3.7153" height="3.70856" fill="white"/>
<rect x="29.7228" y="21.7566" width="3.7153" height="3.70856" fill="white"/>
<rect x="29.7228" y="32.8826" width="3.7153" height="3.70856" fill="white"/>
<rect x="26.0067" y="18.0486" width="3.7153" height="3.70856" fill="white"/>
<rect x="22.291" y="18.0486" width="3.7153" height="3.70856" fill="white"/>
<rect x="3.7135" y="18.0486" width="3.7153" height="3.70856" fill="white"/>
<rect x="67.2883" y="18.0486" width="3.7153" height="3.70856" fill="white"/>
<rect x="3.7135" y="25.4656" width="3.7153" height="3.70856" fill="white"/>
<rect x="48.7131" y="25.4656" width="3.7153" height="3.70856" fill="white"/>
<rect x="67.2883" y="25.4656" width="3.7153" height="3.70856" fill="white"/>
<rect x="3.7135" y="21.7566" width="3.7153" height="3.70856" fill="white"/>
<rect x="48.7131" y="21.7566" width="3.7153" height="3.70856" fill="white"/>
<rect x="67.2883" y="21.7566" width="3.7153" height="3.70856" fill="white"/>
<rect x="3.7135" y="29.1746" width="3.7153" height="3.70856" fill="white"/>
<rect x="48.7131" y="29.1746" width="3.7153" height="3.70856" fill="white"/>
<rect x="67.2883" y="29.1746" width="3.7153" height="3.70856" fill="white"/>
<rect x="71.0046" y="29.1746" width="3.7153" height="3.70856" fill="white"/>
<rect x="74.7183" y="29.1746" width="3.7153" height="3.70856" fill="white"/>
<rect x="74.7183" y="25.4656" width="3.7153" height="3.70856" fill="white"/>
<rect x="3.7135" y="32.8826" width="3.7153" height="3.70856" fill="white"/>
<rect x="48.7131" y="32.8826" width="3.7153" height="3.70856" fill="white"/>
<rect x="67.2883" y="32.8826" width="3.7153" height="3.70856" fill="white"/>
<rect x="71.0046" y="32.8826" width="3.7153" height="3.70856" fill="white"/>
<rect x="74.7183" y="32.8826" width="3.7153" height="3.70856" fill="white"/>
<ellipse cx="131.362" cy="10.9718" rx="1.85016" ry="1.8468" fill="black"/>
</svg>
