<svg width="312" height="37" viewBox="0 0 312 37" fill="none" xmlns="http://www.w3.org/2000/svg">
<path d="M93.9319 1L93.9319 36.0934" stroke="white" stroke-linecap="square"/>
<path d="M115.232 25.4429V12.523H117.677V25.4429H115.232ZM116.455 9.90406C116.002 9.90406 115.522 9.84542 115.232 9.55487C114.943 9.24616 114.883 8.7867 114.883 8.33271C114.883 7.89689 114.943 7.5757 115.232 7.28515C115.522 6.97644 116.002 6.93596 116.455 6.93596C116.907 6.93596 117.212 6.97644 117.502 7.28515C117.792 7.5757 118.026 7.89689 118.026 8.33271C118.026 8.7867 117.792 9.24616 117.502 9.55487C117.212 9.84542 116.907 9.90406 116.455 9.90406Z" fill="white"/>
<path d="M130.247 25.7921C128.925 25.7921 127.566 25.5841 126.406 25.0938C125.265 24.5853 124.308 23.8884 123.438 22.9986C122.587 22.1088 122.007 21.0363 121.518 19.8559C121.029 18.6756 120.645 17.3768 120.645 16.0149C120.645 14.6529 121.029 13.336 121.518 12.1738C122.007 10.9934 122.569 10.0955 123.438 9.20568C124.308 8.31588 125.422 7.60086 126.581 7.11055C127.758 6.62025 129.045 6.41218 130.422 6.41218C131.926 6.41218 133.17 6.70405 134.438 7.28515C135.706 7.86625 136.904 8.63991 137.755 9.72947L136.009 11.4754C135.411 10.6038 134.543 10.0089 133.565 9.55487C132.587 9.08273 131.581 8.8565 130.422 8.8565C129.045 8.8565 127.824 9.11205 126.756 9.72947C125.705 10.3469 124.734 11.2588 124.137 12.3484C123.557 13.4379 123.264 14.5984 123.264 16.0149C123.264 17.4494 123.713 18.7664 124.311 19.8559C124.909 20.9455 125.567 21.6828 126.581 22.3003C127.595 22.9177 128.769 23.3478 130.073 23.3478C131.395 23.3478 132.605 22.9833 133.565 22.4748C134.543 21.9664 135.309 21.3603 135.835 20.3797C136.36 19.381 136.533 18.1478 136.533 16.7132L138.104 17.7608H130.073V15.4911H139.326V15.8403C139.326 18.0375 138.883 19.9382 138.104 21.4273C137.343 22.8982 136.164 24 134.787 24.7446C133.428 25.4891 132.005 25.7921 130.247 25.7921Z" fill="white"/>
<path d="M147.707 25.7921C146.529 25.7921 145.524 25.5003 144.564 24.9192C143.604 24.3199 142.856 23.4918 142.294 22.4748C141.751 21.4579 141.422 20.2541 141.422 18.983C141.422 17.7118 141.751 16.6826 142.294 15.6657C142.856 14.6487 143.622 13.8206 144.564 13.2214C145.524 12.6221 146.511 12.3484 147.707 12.3484C148.685 12.3484 149.565 12.4545 150.326 12.8722C151.105 13.2717 151.775 13.8917 152.246 14.6181C152.717 15.3263 152.89 16.1181 152.945 17.0624V20.9035C152.89 21.8296 152.717 22.796 152.246 23.5224C151.793 24.2488 151.105 24.8507 150.326 25.2684C149.565 25.6679 148.703 25.7921 147.707 25.7921ZM148.056 23.5224C149.27 23.5224 150.282 23.1174 151.024 22.3003C151.767 21.4649 152.246 20.2723 152.246 18.983C152.246 18.0932 152.067 17.367 151.723 16.7132C151.397 16.0413 150.942 15.5051 150.326 15.1419C149.71 14.7605 148.871 14.6181 148.056 14.6181C147.241 14.6181 146.595 14.7605 145.961 15.1419C145.345 15.5232 144.752 16.0413 144.39 16.7132C144.045 17.367 144.04 18.1295 144.04 18.983C144.04 19.8546 144.045 20.7554 144.39 21.4273C144.752 22.081 145.327 22.4427 145.961 22.824C146.595 23.2054 147.241 23.5224 148.056 23.5224ZM152.072 25.4429V21.9511L152.421 18.8084L152.072 15.6657V12.523H154.516V25.4429H152.072Z" fill="white"/>
<path d="M158.008 25.4429V12.523H160.452V25.4429H158.008ZM166.738 25.4429V17.7608C166.738 16.7984 166.462 16.0359 165.865 15.4911C165.285 14.9281 164.483 14.6181 163.595 14.6181C162.997 14.6181 162.495 14.7131 162.024 14.9673C161.553 15.2215 161.266 15.5609 160.976 16.0149C160.686 16.4688 160.452 16.9506 160.452 17.5862L159.579 17.237C159.579 16.2564 159.686 15.3445 160.103 14.6181C160.538 13.8917 161.106 13.2717 161.849 12.8722C162.592 12.4545 163.544 12.3484 164.468 12.3484C165.374 12.3484 166.188 12.4727 166.912 12.8722C167.655 13.2717 168.242 13.8917 168.658 14.6181C169.093 15.3445 169.182 16.2383 169.182 17.237V25.4429H166.738ZM175.467 25.4429V17.7608C175.467 16.7984 175.192 16.0359 174.594 15.4911C174.015 14.9281 173.369 14.6181 172.499 14.6181C171.902 14.6181 171.242 14.7131 170.753 14.9673C170.282 15.2215 169.996 15.5609 169.706 16.0149C169.416 16.4688 169.182 16.9506 169.182 17.5862L167.785 17.237C167.84 16.2383 168.187 15.3263 168.658 14.6181C169.147 13.8917 169.818 13.2717 170.579 12.8722C171.34 12.4545 172.117 12.3484 173.023 12.3484C173.965 12.3484 174.725 12.4727 175.467 12.8722C176.21 13.2717 176.779 13.8917 177.213 14.6181C177.666 15.3445 177.912 16.2201 177.912 17.237V25.4429H175.467Z" fill="white"/>
<path d="M181.404 25.4429V12.523H183.848V25.4429H181.404ZM182.626 9.90406C182.173 9.90406 181.693 9.84542 181.404 9.55487C181.114 9.24616 181.054 8.7867 181.054 8.33271C181.054 7.89689 181.114 7.5757 181.404 7.28515C181.693 6.97644 182.173 6.93596 182.626 6.93596C183.079 6.93596 183.383 6.97644 183.673 7.28515C183.963 7.5757 184.023 7.89689 184.023 8.33271C184.023 8.7867 183.963 9.24616 183.673 9.55487C183.383 9.84542 183.079 9.90406 182.626 9.90406Z" fill="white"/>
<path d="M196.593 25.4429V17.9354C196.593 16.9548 196.162 16.1267 195.546 15.4911C194.93 14.8555 194.254 14.6181 193.276 14.6181C192.624 14.6181 192.037 14.6767 191.53 14.9673C191.023 15.2578 190.598 15.681 190.308 16.1895C190.018 16.6979 189.784 17.2817 189.784 17.9354L188.737 17.4116C188.737 16.431 189 15.5554 189.435 14.7927C189.87 14.03 190.577 13.4826 191.355 13.0468C192.134 12.5928 192.996 12.3484 193.974 12.3484C194.953 12.3484 195.851 12.5565 196.593 13.0468C197.354 13.5371 197.904 14.1683 198.339 14.9673C198.774 15.7481 199.038 16.5218 199.038 17.4116V25.4429H196.593ZM187.34 25.4429V12.523H189.784V25.4429H187.34Z" fill="white"/>
<path d="M207.593 31.2046C206.27 31.2046 205.133 30.9965 204.101 30.5062C203.086 30.0159 202.272 29.3009 201.657 28.4111L203.228 26.8397C203.753 27.5116 204.424 27.8914 205.148 28.2365C205.873 28.5996 206.596 28.9348 207.593 28.9348C208.915 28.9348 209.975 28.4209 210.735 27.7127C211.514 27.0226 211.958 26.0995 211.958 24.9192V21.7765L212.481 18.8084L211.958 16.0149V12.523H214.402V24.9192C214.402 26.154 214.109 27.3103 213.529 28.2365C212.967 29.1626 212.117 29.805 211.085 30.3316C210.07 30.8582 208.933 31.2046 207.593 31.2046ZM207.593 25.2684C206.415 25.2684 205.392 24.9583 204.45 24.3954C203.526 23.8324 202.724 23.1063 202.18 22.1257C201.637 21.1269 201.482 20.0432 201.482 18.8084C201.482 17.5735 201.637 16.4535 202.18 15.4911C202.724 14.5105 203.526 13.7843 204.45 13.2214C205.392 12.6403 206.415 12.3484 207.593 12.3484C208.607 12.3484 209.607 12.4727 210.386 12.8722C211.165 13.2717 211.679 13.8917 212.132 14.6181C212.603 15.3263 212.794 16.1 212.831 17.0624V20.5543C212.776 21.4986 212.603 22.2723 212.132 22.9986C211.679 23.7068 210.991 24.3451 210.212 24.7446C209.433 25.1441 208.589 25.2684 207.593 25.2684ZM208.117 22.9986C208.914 22.9986 209.614 22.8199 210.212 22.4748C210.828 22.1298 211.282 21.6955 211.608 21.0781C211.934 20.4425 212.132 19.6437 212.132 18.8084C212.132 17.973 211.953 17.3307 211.608 16.7132C211.282 16.0777 210.809 15.4869 210.212 15.1419C209.614 14.7787 208.932 14.6181 208.117 14.6181C207.301 14.6181 206.463 14.7787 205.847 15.1419C205.231 15.4869 204.812 16.0777 204.45 16.7132C204.106 17.3307 203.926 17.9912 203.926 18.8084C203.926 19.6255 204.106 20.2679 204.45 20.9035C204.812 21.5391 205.231 22.1117 205.847 22.4748C206.481 22.8199 207.301 22.9986 208.117 22.9986Z" fill="white"/>
<path d="M223.481 25.4429V7.11055H225.925V25.4429H223.481ZM217.021 9.03109V6.58677H232.385V9.03109H217.021Z" fill="white"/>
<path d="M237.448 25.7921C236.162 25.7921 234.989 25.5003 233.956 24.9192C232.924 24.3199 232.11 23.4918 231.512 22.4748C230.914 21.4579 230.639 20.2723 230.639 18.983C230.639 17.7118 230.932 16.6826 231.512 15.6657C232.11 14.6488 232.786 13.8024 233.782 13.2214C234.796 12.6221 236.024 12.3484 237.274 12.3484C238.469 12.3484 239.511 12.502 240.416 13.0468C241.34 13.5915 242.004 14.354 242.512 15.3165C243.037 16.2789 243.385 17.4171 243.385 18.6338C243.385 18.8154 243.228 19.1142 243.21 19.3322C243.192 19.5319 243.264 19.7581 243.21 20.0305H232.211V17.9354H241.813L240.94 18.6338C240.94 17.7621 240.724 17.1379 240.416 16.5386C240.109 15.9212 239.756 15.4688 239.194 15.1419C238.633 14.7969 237.896 14.6181 237.099 14.6181C236.266 14.6181 235.638 14.7787 235.004 15.1419C234.37 15.5051 233.777 16.0595 233.433 16.7132C233.089 17.367 232.909 18.0932 232.909 18.983C232.909 19.8909 233.07 20.7372 233.433 21.4273C233.795 22.0992 234.334 22.6173 235.004 22.9986C235.674 23.3618 236.579 23.5224 237.448 23.5224C238.173 23.5224 238.771 23.4275 239.369 23.1732C239.985 22.919 240.505 22.4595 240.94 21.9511L242.512 23.5224C241.896 24.2488 241.148 24.887 240.242 25.2684C239.354 25.6497 238.463 25.7921 237.448 25.7921Z" fill="white"/>
<path d="M254.035 25.4429L250.019 19.8559L249.495 19.3322L244.432 12.523H247.4L251.067 17.5862L251.59 17.9354L257.003 25.4429H254.035ZM244.258 25.4429L249.495 18.2846L250.892 20.2051L247.051 25.4429H244.258ZM251.765 19.3322L250.368 17.5862L253.86 12.523H256.828L251.765 19.3322Z" fill="white"/>
<path d="M260.669 25.4429V7.11055H263.114V25.4429H260.669ZM257.527 14.7927V12.523H266.256V14.7927H257.527Z" fill="white"/>
<path d="M269.225 25.4429V6.58677H271.669V25.4429H269.225ZM270.796 25.4429V23.1732H280.922V25.4429H270.796Z" fill="white"/>
<path d="M288.604 25.7921C287.427 25.7921 286.422 25.5003 285.462 24.9192C284.502 24.3199 283.754 23.4918 283.192 22.4748C282.649 21.4579 282.319 20.2541 282.319 18.983C282.319 17.7118 282.649 16.6826 283.192 15.6657C283.754 14.6487 284.52 13.8206 285.462 13.2214C286.422 12.6221 287.409 12.3484 288.604 12.3484C289.583 12.3484 290.463 12.4545 291.223 12.8722C292.002 13.2717 292.673 13.8917 293.144 14.6181C293.615 15.3263 293.788 16.1181 293.842 17.0624V20.9035C293.788 21.8296 293.615 22.796 293.144 23.5224C292.691 24.2488 292.002 24.8507 291.223 25.2684C290.463 25.6679 289.601 25.7921 288.604 25.7921ZM288.954 23.5224C290.167 23.5224 291.179 23.1174 291.922 22.3003C292.664 21.4649 293.144 20.2723 293.144 18.983C293.144 18.0932 292.964 17.367 292.62 16.7132C292.294 16.0413 291.839 15.5051 291.223 15.1419C290.607 14.7605 289.769 14.6181 288.954 14.6181C288.139 14.6181 287.493 14.7605 286.859 15.1419C286.243 15.5232 285.649 16.0413 285.287 16.7132C284.943 17.367 284.938 18.1295 284.938 18.983C284.938 19.8546 284.943 20.7554 285.287 21.4273C285.649 22.081 286.225 22.4427 286.859 22.824C287.493 23.2054 288.139 23.5224 288.954 23.5224ZM292.969 25.4429V21.9511L293.319 18.8084L292.969 15.6657V12.523H295.414V25.4429H292.969Z" fill="white"/>
<path d="M305.715 25.7921C304.737 25.7921 303.893 25.6679 303.096 25.2684C302.317 24.8507 301.646 24.2488 301.175 23.5224C300.704 22.796 300.531 21.8296 300.477 20.9035V17.0624C300.531 16.1181 300.704 15.3263 301.175 14.6181C301.664 13.8917 302.317 13.2717 303.096 12.8722C303.893 12.4545 304.755 12.3484 305.715 12.3484C306.892 12.3484 307.915 12.6221 308.857 13.2214C309.817 13.8206 310.584 14.6487 311.127 15.6657C311.671 16.6826 312 17.7118 312 18.983C312 20.2541 311.671 21.4579 311.127 22.4748C310.584 23.4918 309.817 24.3199 308.857 24.9192C307.915 25.5003 306.892 25.7921 305.715 25.7921ZM298.906 25.4429V6.06299H301.35V15.6657L301.001 18.8084L301.35 21.9511V25.4429H298.906ZM305.366 23.5224C306.181 23.5224 306.845 23.2054 307.461 22.824C308.077 22.4427 308.67 22.081 309.032 21.4273C309.394 20.7554 309.556 19.8546 309.556 18.983C309.556 18.1295 309.394 17.3851 309.032 16.7132C308.67 16.0413 308.077 15.5051 307.461 15.1419C306.845 14.7605 306.163 14.6181 305.366 14.6181C304.55 14.6181 303.886 14.7605 303.27 15.1419C302.654 15.5051 302.043 16.0413 301.699 16.7132C301.355 17.3851 301.35 18.1113 301.35 18.983C301.35 19.8364 301.373 20.7554 301.699 21.4273C302.043 22.081 302.654 22.4427 303.27 22.824C303.904 23.2054 304.568 23.5224 305.366 23.5224Z" fill="white"/>
<path d="M114.185 8.33271C114.185 7.107 115.232 6.23758 116.455 6.23758C117.677 6.23758 118.55 7.107 118.55 8.33271C118.55 9.55843 117.677 10.6024 116.455 10.6024C115.232 10.6024 114.185 9.55843 114.185 8.33271Z" fill="#7A46D6"/>
<rect y="6.93579" width="3.31729" height="3.31729" fill="#7A46D6"/>
<rect x="3.31689" y="3.61792" width="3.31729" height="3.31729" fill="#7A46D6"/>
<rect y="3.61792" width="3.31729" height="3.31729" fill="#7A46D6"/>
<rect x="70.3616" y="26.8398" width="3.31729" height="3.31729" fill="white"/>
<rect x="70.3616" y="23.521" width="3.31729" height="3.31729" fill="white"/>
<rect x="70.3616" y="30.1565" width="3.31729" height="3.31729" fill="white"/>
<rect x="50.283" y="3.61792" width="3.31729" height="3.31729" fill="white"/>
<rect x="26.5386" y="6.93579" width="3.31729" height="3.31729" fill="white"/>
<rect x="40.3311" y="13.5703" width="3.31729" height="3.31729" fill="white"/>
<rect x="57.0923" y="13.5703" width="3.31729" height="3.31729" fill="white"/>
<rect x="40.3311" y="10.2527" width="3.31729" height="3.31729" fill="white"/>
<rect x="57.0923" y="10.2527" width="3.31729" height="3.31729" fill="white"/>
<rect x="40.3311" y="6.93579" width="3.31729" height="3.31729" fill="white"/>
<rect x="37.0137" y="3.61792" width="3.31729" height="3.31729" fill="white"/>
<rect x="40.3311" y="3.61792" width="3.31729" height="3.31729" fill="white"/>
<rect y="16.8872" width="3.31729" height="3.31729" fill="white"/>
<rect x="40.3311" y="16.8872" width="3.31729" height="3.31729" fill="white"/>
<rect x="57.0923" y="16.8872" width="3.31729" height="3.31729" fill="white"/>
<rect y="23.521" width="3.31729" height="3.31729" fill="white"/>
<rect x="40.3311" y="23.521" width="3.31729" height="3.31729" fill="white"/>
<rect x="57.0923" y="23.521" width="3.31729" height="3.31729" fill="white"/>
<rect y="20.2051" width="3.31729" height="3.31729" fill="white"/>
<rect x="57.0923" y="20.2051" width="3.31729" height="3.31729" fill="white"/>
<rect y="26.8398" width="3.31729" height="3.31729" fill="white"/>
<rect x="40.3311" y="26.8398" width="3.31729" height="3.31729" fill="white"/>
<rect x="57.0923" y="26.8398" width="3.31729" height="3.31729" fill="white"/>
<rect y="30.1565" width="3.31729" height="3.31729" fill="white"/>
<rect x="40.3311" y="30.1565" width="3.31729" height="3.31729" fill="white"/>
<rect x="57.0923" y="30.1565" width="3.31729" height="3.31729" fill="white"/>
<rect x="3.31689" y="13.5703" width="3.31729" height="3.31729" fill="white"/>
<rect x="43.6484" y="13.5703" width="3.31729" height="3.31729" fill="white"/>
<rect x="60.4097" y="13.5703" width="3.31729" height="3.31729" fill="white"/>
<rect x="43.6484" y="10.2527" width="3.31729" height="3.31729" fill="white"/>
<rect x="60.4097" y="10.2527" width="3.31729" height="3.31729" fill="white"/>
<rect x="60.4097" y="6.93579" width="3.31729" height="3.31729" fill="white"/>
<rect x="57.0923" y="6.93579" width="3.31729" height="3.31729" fill="white"/>
<rect x="60.4097" y="3.61792" width="3.31729" height="3.31729" fill="white"/>
<rect x="43.6484" y="6.93579" width="3.31729" height="3.31729" fill="white"/>
<rect x="46.9663" y="6.93579" width="3.31729" height="3.31729" fill="white"/>
<rect x="50.283" y="6.93579" width="3.31729" height="3.31729" fill="white"/>
<rect x="33.6968" y="3.61792" width="3.31729" height="3.31729" fill="white"/>
<rect x="37.0137" y="6.93579" width="3.31729" height="3.31729" fill="white"/>
<rect x="33.6968" y="6.93579" width="3.31729" height="3.31729" fill="white"/>
<rect x="46.9663" y="3.61792" width="3.31729" height="3.31729" fill="white"/>
<rect x="43.6484" y="3.61792" width="3.31729" height="3.31729" fill="white"/>
<rect x="13.2693" y="13.5703" width="3.31729" height="3.31729" fill="white"/>
<rect x="9.95142" y="13.5703" width="3.31729" height="3.31729" fill="white"/>
<rect x="9.95142" y="10.2527" width="3.31729" height="3.31729" fill="white"/>
<rect x="9.95142" y="6.93579" width="3.31729" height="3.31729" fill="white"/>
<rect x="13.2693" y="6.93579" width="3.31729" height="3.31729" fill="white"/>
<rect x="13.2693" y="3.61792" width="3.31729" height="3.31729" fill="white"/>
<rect x="16.5867" y="3.61792" width="3.31729" height="3.31729" fill="white"/>
<rect x="16.5867" y="6.93579" width="3.31729" height="3.31729" fill="white"/>
<rect x="19.9041" y="3.61792" width="3.31729" height="3.31729" fill="white"/>
<rect x="23.2209" y="3.61792" width="3.31729" height="3.31729" fill="white"/>
<rect x="19.9041" y="6.93579" width="3.31729" height="3.31729" fill="white"/>
<rect x="23.2209" y="6.93579" width="3.31729" height="3.31729" fill="white"/>
<rect x="13.2693" y="10.2527" width="3.31729" height="3.31729" fill="white"/>
<rect x="13.2693" y="16.8872" width="3.31729" height="3.31729" fill="white"/>
<rect x="9.95142" y="16.8872" width="3.31729" height="3.31729" fill="white"/>
<rect x="13.2693" y="20.2051" width="3.31729" height="3.31729" fill="white"/>
<rect x="9.95142" y="20.2051" width="3.31729" height="3.31729" fill="white"/>
<rect x="13.2693" y="23.521" width="3.31729" height="3.31729" fill="white"/>
<rect x="9.95142" y="23.521" width="3.31729" height="3.31729" fill="white"/>
<rect x="9.95142" y="26.8398" width="3.31729" height="3.31729" fill="white"/>
<rect x="13.2693" y="26.8398" width="3.31729" height="3.31729" fill="white"/>
<rect x="13.2693" y="30.1565" width="3.31729" height="3.31729" fill="white"/>
<rect x="16.5867" y="30.1565" width="3.31729" height="3.31729" fill="white"/>
<rect x="16.5867" y="26.8398" width="3.31729" height="3.31729" fill="white"/>
<rect x="19.9041" y="30.1565" width="3.31729" height="3.31729" fill="white"/>
<rect x="23.2209" y="30.1565" width="3.31729" height="3.31729" fill="white"/>
<rect x="19.9041" y="26.8398" width="3.31729" height="3.31729" fill="white"/>
<rect x="23.2209" y="26.8398" width="3.31729" height="3.31729" fill="white"/>
<rect x="23.2209" y="23.521" width="3.31729" height="3.31729" fill="white"/>
<rect x="23.2209" y="20.2051" width="3.31729" height="3.31729" fill="white"/>
<rect x="26.5386" y="26.8398" width="3.31729" height="3.31729" fill="white"/>
<rect x="26.5386" y="23.521" width="3.31729" height="3.31729" fill="white"/>
<rect x="26.5386" y="20.2051" width="3.31729" height="3.31729" fill="white"/>
<rect x="26.5386" y="30.1565" width="3.31729" height="3.31729" fill="white"/>
<rect x="23.2209" y="16.8872" width="3.31729" height="3.31729" fill="white"/>
<rect x="19.9041" y="16.8872" width="3.31729" height="3.31729" fill="white"/>
<rect x="3.31689" y="16.8872" width="3.31729" height="3.31729" fill="white"/>
<rect x="60.4097" y="16.8872" width="3.31729" height="3.31729" fill="white"/>
<rect x="3.31689" y="23.521" width="3.31729" height="3.31729" fill="white"/>
<rect x="43.6484" y="23.521" width="3.31729" height="3.31729" fill="white"/>
<rect x="60.4097" y="23.521" width="3.31729" height="3.31729" fill="white"/>
<rect x="3.31689" y="20.2051" width="3.31729" height="3.31729" fill="white"/>
<rect x="43.6484" y="20.2051" width="3.31729" height="3.31729" fill="white"/>
<rect x="60.4097" y="20.2051" width="3.31729" height="3.31729" fill="white"/>
<rect x="3.31689" y="26.8398" width="3.31729" height="3.31729" fill="white"/>
<rect x="43.6484" y="26.8398" width="3.31729" height="3.31729" fill="white"/>
<rect x="60.4097" y="26.8398" width="3.31729" height="3.31729" fill="white"/>
<rect x="63.7268" y="26.8398" width="3.31729" height="3.31729" fill="white"/>
<rect x="67.0447" y="26.8398" width="3.31729" height="3.31729" fill="white"/>
<rect x="67.0447" y="23.521" width="3.31729" height="3.31729" fill="white"/>
<rect x="3.31689" y="30.1565" width="3.31729" height="3.31729" fill="white"/>
<rect x="43.6484" y="30.1565" width="3.31729" height="3.31729" fill="white"/>
<rect x="60.4097" y="30.1565" width="3.31729" height="3.31729" fill="white"/>
<rect x="63.7268" y="30.1565" width="3.31729" height="3.31729" fill="white"/>
<rect x="67.0447" y="30.1565" width="3.31729" height="3.31729" fill="white"/>
</svg>
